<svg width="170" height="170" viewBox="0 0 170 170" fill="none" xmlns="http://www.w3.org/2000/svg">
    <circle cx="85.667" cy="85.3779" r="83.6611" fill="#FF33EB"/>
    <path d="M44.4691 121.531L30.3837 131.541L26.2476 125.721C26.053 125.447 25.725 124.944 25.5264 124.54C24.1701 121.824 25.1565 119.4 27.4845 117.746C29.8028 116.098 32.4396 115.976 34.5352 118.138C34.8511 118.458 35.2321 118.953 35.4129 119.207L37.8737 122.67L42.7938 119.173L44.4691 121.531ZM35.6728 124.234L33.2815 120.869C33.0939 120.605 32.824 120.267 32.5512 120.048C31.4235 119.083 30.0736 119.483 29.1737 120.123C28.2738 120.762 27.4522 121.905 27.9832 123.295C28.1094 123.617 28.34 123.983 28.5277 124.247L30.919 127.612L35.6728 124.234ZM32.8744 99.0795L29.7276 101.437L31.9459 107.856L35.8726 107.756L36.8446 110.569L18.7328 111.063L17.3493 107.06L31.9024 96.2667L32.8744 99.0795ZM29.1196 107.944L27.4539 103.124L20.6822 108.181L29.1196 107.944ZM31.5673 93.7297L14.2919 94.1285L14.2252 91.2372L21.4953 91.0694L21.3064 82.8876L14.0364 83.0554L13.9699 80.1762L31.2453 79.7774L31.3118 82.6567L24.0177 82.825L24.2065 91.0069L31.5006 90.8385L31.5673 93.7297ZM31.6362 76.0721L14.9566 71.5566L17.8729 60.7844L20.4907 61.4931L18.3301 69.4738L32.3919 73.2806L31.6362 76.0721ZM39.7692 57.1888C37.0461 61.5859 32.3249 62.3037 27.7645 59.4796C23.2042 56.6554 21.743 52.1089 24.4661 47.7118C27.1954 43.3045 31.9167 42.5867 36.4771 45.4109C41.0374 48.235 42.4986 52.7815 39.7692 57.1888ZM37.4533 55.7546C39.3162 52.815 38.0796 50.0026 34.866 48.0124C31.6523 46.0222 28.655 46.2127 26.7819 49.146C24.9191 52.0856 26.1683 54.8776 29.3756 56.878C32.583 58.8784 35.5803 58.688 37.4533 55.7546ZM40.3128 42.5597L38.761 40.9057L44.0117 35.9792L45.5636 37.6332L40.3128 42.5597ZM55.5109 39.8157L55.135 34.6451L43.6236 26.7443L46.4432 25.1L54.9056 31.2504L53.8343 20.7899L56.4984 19.2363L58.175 38.2621L55.5109 39.8157ZM64.679 34.6278L64.106 32.2725C65.624 32.0144 65.9227 31.2624 65.7543 28.4382C65.5235 24.4436 64.6141 19.5889 64.1038 16.9837L75.344 14.2492L79.4288 31.0394L76.6187 31.7231L73.175 17.568L67.3451 18.9863C67.7186 21.1308 68.4265 25.1575 68.6154 28.8783C68.8005 32.279 68.3935 34.5145 64.679 34.6278ZM85.4057 30.809L87.9891 26.3143L82.8746 13.3229L86.1315 13.5392L89.6998 23.3732L94.6687 14.106L97.7459 14.3104L88.4829 31.0133L85.4057 30.809ZM114.129 19.5492L116.845 20.5776L110.725 36.7377L108.009 35.7093L110.351 29.5258C109.211 29.723 107.701 29.5103 106.253 28.962C102.168 27.4152 101.678 24.304 103.072 20.6231L104.814 16.0219L107.553 17.0589L106.125 20.8296C105.283 23.0516 104.674 25.4387 107.805 26.6243C109.242 27.1683 110.531 27.1177 111.379 26.81L114.129 19.5492ZM113.937 38.5903L125.383 25.6449L127.55 27.5606L117.9 38.4742L121.9 42.0114L131.55 31.0978L133.717 33.0135L124.067 43.9271L128.076 47.4723L137.726 36.5587L139.884 38.4664L128.437 51.4117L113.937 38.5903ZM137.031 66.5559L135.693 63.9518L146.526 58.3838L132.028 56.8224L130.69 54.2183L146.058 46.3188L147.397 48.923L136.564 54.491L151.061 56.0523L152.4 58.6565L137.031 66.5559ZM139.005 74.1431L153.346 71.5827L152.364 66.0778L155.033 65.6011L157.507 79.4581L154.837 79.9347L153.855 74.4297L139.513 76.9901L139.005 74.1431ZM140.462 84.8293L157.671 86.3965L156.658 97.5105L153.958 97.2646L154.707 89.0306L150.465 88.6443L149.846 95.4441L147.145 95.1982L147.764 88.3983L142.9 87.9553L142.15 96.1893L139.45 95.9433L140.462 84.8293ZM139.12 98.0154L141.366 98.9294C140.686 100.311 141.121 100.994 143.51 102.51C146.884 104.661 151.352 106.765 153.763 107.876L149.402 118.59L133.397 112.075L134.487 109.397L147.98 114.889L150.242 109.332C148.285 108.38 144.606 106.597 141.478 104.572C138.613 102.732 137.038 101.094 139.12 98.0154ZM131.559 115.284L144.905 126.26L143.068 128.494L138.406 124.66L135.708 127.941C135.502 128.191 135.095 128.648 134.75 128.955C132.507 130.964 129.893 130.647 127.697 128.841C125.491 127.026 124.677 124.539 126.214 121.934C126.448 121.537 126.811 121.058 127.024 120.798L131.559 115.284ZM131.817 119.24L129.195 122.428C128.989 122.679 128.733 123.028 128.577 123.35C127.957 124.689 128.696 125.887 129.549 126.588C130.402 127.29 131.72 127.784 132.905 126.909C133.2 126.702 133.493 126.383 133.699 126.133L136.321 122.945L131.817 119.24Z" fill="black"/>
    <path d="M85.125 48.8936L116.721 103.62H53.5286L85.125 48.8936Z" fill="black"/>
</svg>
